<mxfile host="app.diagrams.net" agent="Mozilla/5.0 (Windows NT 10.0; Win64; x64) AppleWebKit/537.36 (KHTML, like Gecko) Chrome/129.0.0.0 Safari/537.36" version="24.7.17">
  <diagram name="Страница — 1" id="tJxcyjW0NNPjU7oyLboh">
    <mxGraphModel dx="1243" dy="1235" grid="0" gridSize="10" guides="1" tooltips="1" connect="1" arrows="1" fold="1" page="0" pageScale="1" pageWidth="827" pageHeight="1169" math="0" shadow="0">
      <root>
        <mxCell id="0" />
        <mxCell id="1" parent="0" />
        <mxCell id="g0cG-jnoPmAeGdJewBBW-2" value="Гость" style="swimlane;fontStyle=0;childLayout=stackLayout;horizontal=1;startSize=30;horizontalStack=0;resizeParent=1;resizeParentMax=0;resizeLast=0;collapsible=1;marginBottom=0;whiteSpace=wrap;html=1;" vertex="1" parent="1">
          <mxGeometry x="74" y="-84" width="204" height="123" as="geometry" />
        </mxCell>
        <mxCell id="g0cG-jnoPmAeGdJewBBW-3" value="- Просмотр информации&lt;br&gt;- Чтение справочных материалов&lt;div&gt;- Изучение политики и соглашения&lt;br&gt;&lt;/div&gt;" style="text;strokeColor=none;fillColor=none;align=left;verticalAlign=middle;spacingLeft=4;spacingRight=4;overflow=hidden;points=[[0,0.5],[1,0.5]];portConstraint=eastwest;rotatable=0;whiteSpace=wrap;html=1;" vertex="1" parent="g0cG-jnoPmAeGdJewBBW-2">
          <mxGeometry y="30" width="204" height="93" as="geometry" />
        </mxCell>
        <mxCell id="g0cG-jnoPmAeGdJewBBW-7" value="Преподаватель" style="swimlane;fontStyle=0;childLayout=stackLayout;horizontal=1;startSize=30;horizontalStack=0;resizeParent=1;resizeParentMax=0;resizeLast=0;collapsible=1;marginBottom=0;whiteSpace=wrap;html=1;" vertex="1" parent="1">
          <mxGeometry x="179" y="126" width="262" height="210" as="geometry" />
        </mxCell>
        <mxCell id="g0cG-jnoPmAeGdJewBBW-10" value="- Просмотр списка студентов&lt;br&gt;- Оценка загруженных материалов&lt;br&gt;- Комментирование материалов&lt;br&gt;- Установка промежуточных задач и сроков&lt;br&gt;- Приглашение рецензентов&lt;br&gt;- Отправка уведомлений студентам&lt;br&gt;- Организация консультаций" style="text;strokeColor=none;fillColor=none;align=left;verticalAlign=middle;spacingLeft=4;spacingRight=4;overflow=hidden;points=[[0,0.5],[1,0.5]];portConstraint=eastwest;rotatable=0;whiteSpace=wrap;html=1;" vertex="1" parent="g0cG-jnoPmAeGdJewBBW-7">
          <mxGeometry y="30" width="262" height="180" as="geometry" />
        </mxCell>
        <mxCell id="g0cG-jnoPmAeGdJewBBW-11" value="Студент" style="swimlane;fontStyle=0;childLayout=stackLayout;horizontal=1;startSize=30;horizontalStack=0;resizeParent=1;resizeParentMax=0;resizeLast=0;collapsible=1;marginBottom=0;whiteSpace=wrap;html=1;" vertex="1" parent="1">
          <mxGeometry x="-70" y="126" width="226" height="210" as="geometry" />
        </mxCell>
        <mxCell id="g0cG-jnoPmAeGdJewBBW-12" value="- Создание дипломного проекта&lt;br&gt;- Добавление задач и материалов&lt;br&gt;- Получение комментариев&lt;br&gt;- Взаимодействие через сообщения&lt;br&gt;- Отправка на проверку и рецензирование" style="text;strokeColor=none;fillColor=none;align=left;verticalAlign=middle;spacingLeft=4;spacingRight=4;overflow=hidden;points=[[0,0.5],[1,0.5]];portConstraint=eastwest;rotatable=0;whiteSpace=wrap;html=1;" vertex="1" parent="g0cG-jnoPmAeGdJewBBW-11">
          <mxGeometry y="30" width="226" height="180" as="geometry" />
        </mxCell>
        <mxCell id="g0cG-jnoPmAeGdJewBBW-21" value="" style="endArrow=open;endFill=1;endSize=12;html=1;rounded=0;fontSize=12;curved=1;exitX=0.486;exitY=1.043;exitDx=0;exitDy=0;exitPerimeter=0;entryX=0.5;entryY=0;entryDx=0;entryDy=0;" edge="1" parent="1" source="g0cG-jnoPmAeGdJewBBW-3" target="g0cG-jnoPmAeGdJewBBW-11">
          <mxGeometry width="160" relative="1" as="geometry">
            <mxPoint x="70" y="96" as="sourcePoint" />
            <mxPoint x="230" y="96" as="targetPoint" />
          </mxGeometry>
        </mxCell>
        <mxCell id="g0cG-jnoPmAeGdJewBBW-22" value="" style="endArrow=open;endFill=1;endSize=12;html=1;rounded=0;fontSize=12;curved=1;entryX=0.5;entryY=0;entryDx=0;entryDy=0;" edge="1" parent="1" target="g0cG-jnoPmAeGdJewBBW-7">
          <mxGeometry width="160" relative="1" as="geometry">
            <mxPoint x="172" y="42" as="sourcePoint" />
            <mxPoint x="332" y="42" as="targetPoint" />
          </mxGeometry>
        </mxCell>
        <mxCell id="g0cG-jnoPmAeGdJewBBW-23" value="Администратор" style="swimlane;fontStyle=0;childLayout=stackLayout;horizontal=1;startSize=26;fillColor=none;horizontalStack=0;resizeParent=1;resizeParentMax=0;resizeLast=0;collapsible=1;marginBottom=0;whiteSpace=wrap;html=1;" vertex="1" parent="1">
          <mxGeometry x="460" y="126" width="230" height="210" as="geometry" />
        </mxCell>
        <mxCell id="g0cG-jnoPmAeGdJewBBW-24" value="- Управление учетными записями&lt;br&gt;- Настройка ролей и прав доступа&lt;br&gt;- Контроль процесса выполнения дипломных проектов&lt;br&gt;- Назначение преподавателей и студентов&lt;br&gt;- Настройка шаблонов проектов&lt;br&gt;- Техническая поддержка системы" style="text;strokeColor=none;fillColor=none;align=left;verticalAlign=top;spacingLeft=4;spacingRight=4;overflow=hidden;rotatable=0;points=[[0,0.5],[1,0.5]];portConstraint=eastwest;whiteSpace=wrap;html=1;" vertex="1" parent="g0cG-jnoPmAeGdJewBBW-23">
          <mxGeometry y="26" width="230" height="184" as="geometry" />
        </mxCell>
        <mxCell id="g0cG-jnoPmAeGdJewBBW-27" value="Проектная область" style="html=1;whiteSpace=wrap;" vertex="1" parent="1">
          <mxGeometry x="165" y="451" width="116" height="50" as="geometry" />
        </mxCell>
        <mxCell id="g0cG-jnoPmAeGdJewBBW-28" value="Система сообщений" style="html=1;whiteSpace=wrap;" vertex="1" parent="1">
          <mxGeometry x="353" y="451" width="115" height="50" as="geometry" />
        </mxCell>
        <mxCell id="g0cG-jnoPmAeGdJewBBW-29" value="" style="endArrow=open;endFill=1;endSize=12;html=1;rounded=0;fontSize=12;curved=1;exitX=0.491;exitY=1.021;exitDx=0;exitDy=0;exitPerimeter=0;entryX=0;entryY=0.5;entryDx=0;entryDy=0;" edge="1" parent="1" source="g0cG-jnoPmAeGdJewBBW-12" target="g0cG-jnoPmAeGdJewBBW-27">
          <mxGeometry width="160" relative="1" as="geometry">
            <mxPoint x="110" y="395" as="sourcePoint" />
            <mxPoint x="218" y="448" as="targetPoint" />
            <Array as="points">
              <mxPoint x="-29" y="490" />
            </Array>
          </mxGeometry>
        </mxCell>
        <mxCell id="g0cG-jnoPmAeGdJewBBW-30" value="" style="endArrow=open;endFill=1;endSize=12;html=1;rounded=0;fontSize=12;curved=1;exitX=0.523;exitY=1.01;exitDx=0;exitDy=0;exitPerimeter=0;" edge="1" parent="1" source="g0cG-jnoPmAeGdJewBBW-10">
          <mxGeometry width="160" relative="1" as="geometry">
            <mxPoint x="193" y="63" as="sourcePoint" />
            <mxPoint x="218" y="451" as="targetPoint" />
            <Array as="points">
              <mxPoint x="187" y="375" />
            </Array>
          </mxGeometry>
        </mxCell>
        <mxCell id="g0cG-jnoPmAeGdJewBBW-31" value="" style="endArrow=open;endFill=1;endSize=12;html=1;rounded=0;fontSize=12;curved=1;exitX=0.531;exitY=1.01;exitDx=0;exitDy=0;exitPerimeter=0;entryX=0.5;entryY=0;entryDx=0;entryDy=0;" edge="1" parent="1" source="g0cG-jnoPmAeGdJewBBW-10" target="g0cG-jnoPmAeGdJewBBW-28">
          <mxGeometry width="160" relative="1" as="geometry">
            <mxPoint x="203" y="73" as="sourcePoint" />
            <mxPoint x="73" y="156" as="targetPoint" />
            <Array as="points">
              <mxPoint x="432" y="373" />
            </Array>
          </mxGeometry>
        </mxCell>
        <mxCell id="g0cG-jnoPmAeGdJewBBW-32" value="" style="endArrow=open;endFill=1;endSize=12;html=1;rounded=0;fontSize=12;curved=1;exitX=0.548;exitY=1.015;exitDx=0;exitDy=0;exitPerimeter=0;entryX=0.5;entryY=1;entryDx=0;entryDy=0;" edge="1" parent="1" source="g0cG-jnoPmAeGdJewBBW-24" target="g0cG-jnoPmAeGdJewBBW-27">
          <mxGeometry width="160" relative="1" as="geometry">
            <mxPoint x="213" y="83" as="sourcePoint" />
            <mxPoint x="83" y="166" as="targetPoint" />
            <Array as="points">
              <mxPoint x="461" y="701" />
            </Array>
          </mxGeometry>
        </mxCell>
      </root>
    </mxGraphModel>
  </diagram>
</mxfile>
